<?xml version="1.0" encoding="UTF-8" standalone="no"?>
<!-- Created with Inkscape (http://www.inkscape.org/) -->

<svg
   xmlns:dc="http://purl.org/dc/elements/1.1/"
   xmlns:cc="http://creativecommons.org/ns#"
   xmlns:rdf="http://www.w3.org/1999/02/22-rdf-syntax-ns#"
   xmlns:svg="http://www.w3.org/2000/svg"
   xmlns="http://www.w3.org/2000/svg"
   xmlns:sodipodi="http://sodipodi.sourceforge.net/DTD/sodipodi-0.dtd"
   xmlns:inkscape="http://www.inkscape.org/namespaces/inkscape"
   width="59.854172mm"
   height="47.850552mm"
   viewBox="0 0 59.854172 47.850552"
   version="1.1"
   id="svg8"
   inkscape:version="0.92.4 (5da689c313, 2019-01-14)"
   sodipodi:docname="iso.svg">
  <defs
     id="defs2" />
  <sodipodi:namedview
     id="base"
     pagecolor="#ffffff"
     bordercolor="#666666"
     borderopacity="1.0"
     inkscape:pageopacity="0.0"
     inkscape:pageshadow="2"
     inkscape:zoom="0.96616988"
     inkscape:cx="115.39729"
     inkscape:cy="47.713482"
     inkscape:document-units="mm"
     inkscape:current-layer="layer1"
     showgrid="false"
     inkscape:snap-global="false"
     units="mm"
     fit-margin-top="0"
     fit-margin-left="0"
     fit-margin-right="0"
     fit-margin-bottom="0" />
  <metadata
     id="metadata5">
    <rdf:RDF>
      <cc:Work
         rdf:about="">
        <dc:format>image/svg+xml</dc:format>
        <dc:type
           rdf:resource="http://purl.org/dc/dcmitype/StillImage" />
        <dc:title></dc:title>
      </cc:Work>
    </rdf:RDF>
  </metadata>
  <g
     inkscape:label="Capa 1"
     inkscape:groupmode="layer"
     id="layer1"
     transform="translate(174.19582,-104.74223)">
    <g
       id="g839">
      <path
         id="path960"
         transform="matrix(0.26458333,0,0,0.26458333,0,-892)"
         d="m -540.61914,3767.2188 c -2.60965,0.015 -4.3199,0.07 -4.38672,0.1777 -0.11603,0.1874 0.89956,0.6904 2.27734,1.1289 15.15916,4.8252 30.88001,14.4631 40.97657,25.1191 3.90043,4.1166 11.21259,13.7725 14.3457,18.9453 4.8014,7.9273 8.39552,16.4039 10.16797,23.9825 0.42115,1.8007 0.83947,3.3931 0.92969,3.539 0.22526,0.3648 1.06601,0.355 23.77734,-0.289 11.01581,-0.3122 20.16155,-0.6898 20.32422,-0.8379 0.51281,-0.4675 -3.03683,-8.9563 -6.63672,-15.8731 -16.91399,-32.4985 -43.34308,-52.1994 -74.08398,-55.2246 -3.93846,-0.387 -19.86246,-0.712 -27.69141,-0.6679 z m -25.56445,1.8632 c -4.01685,0.01 -7.20543,0.015 -9.91407,0.3496 -21.47743,2.659 -42.63659,12.743 -57.17968,27.252 -11.84414,11.8164 -18.92696,25.1433 -22.26368,41.7187 -5.17697,25.7169 1.10745,52.1486 18.30664,73.7872 1.27321,1.6018 3.52824,4.0333 6.01758,6.5664 0.53201,0.5555 1.07855,1.0939 1.6211,1.6367 0.65805,0.6583 1.32011,1.3088 1.99218,1.9472 2.44789,2.3638 4.80646,4.5179 6.44141,5.8204 16.71927,13.319 29.89698,17.2787 59.12891,19.0898 7.97695,0.1848 12.20142,0.2752 14.40625,0.293 0.002,0 0.0157,-1e-4 0.0195,0 0.0907,0 0.68052,0.014 0.74023,0.017 1.02879,0.03 1.76865,-0.044 1.64453,-0.1679 -0.12434,-0.124 -1.89721,-0.6486 -3.9414,-1.166 -5.54529,-1.4036 -9.95419,-3.0913 -15.65039,-6.1758 -7.02066,-3.9539 -14.61865,-8.787 -20.87891,-14.8457 -16.08117,-15.5636 -25.26929,-34.1025 -28.55469,-54.0098 -0.9126,-5.5299 -0.83999,-16.6201 0.14453,-22 1.97084,-10.7677 6.44783,-20.2293 13.40821,-26.8418 8.02647,-7.6253 18.70167,-11.6102 32.26953,-12.9258 11.00345,-1.0669 24.88788,2.3061 33.96094,8.1016 2.83328,1.8098 7.65543,6.7876 9.7539,9.9414 1.04652,1.5729 2.79546,4.9198 3.88672,7.4375 l 1.98438,4.5781 1.13476,-0.01 c 0.14703,8e-4 0.35,-9e-4 0.53516,0 h 0.97851 c 1.45607,0 9.63415,-0.5436 19.2461,-0.5859 l 16.85351,0.1738 -0.23632,-0.9414 c -0.60193,-2.3983 -2.91563,-6.7922 -5.5918,-12.3731 -1.28096,-5.2127 -4.33719,-8.6629 -7.17774,-13.1093 -15.57766,-24.7995 -36.45738,-39.7771 -62.58593,-43.0625 -2.60875,-0.3277 -6.48121,-0.4998 -10.49805,-0.4942 z m 0.041,43.1719 v 0 c -5.75875,0.019 -7.49473,0.1474 -10.4414,0.7812 -13.45187,2.8938 -23.56043,10.6596 -29.54297,22.6934 -3.70152,7.4455 -5.22448,14.5769 -5.19727,24.33 0.034,12.6508 2.93622,24.3579 9.06445,36.5723 7.25194,14.4541 17.41089,25.9829 30.5918,34.7188 13.41385,8.8903 27.54517,13.4547 45.92774,14.8359 3.25538,0.2445 14.1825,-0.1436 18.61328,-0.6621 13.00444,-1.5212 24.29573,-5.1946 33.01367,-10.7383 9.00094,-5.7237 17.7514,-14.5103 26.70117,-26.8125 7.27113,-9.9947 11.32136,-18.3934 13.86328,-28.7422 0.74015,-3.0134 0.83108,-3.7929 0.46485,-4.0254 -0.54883,-0.3481 -16.5171,-0.3812 -32.51758,-0.068 l -11.68946,0.2285 -1.25976,2.0488 c -9.77794,15.8832 -20.56832,23.9803 -35.0918,26.336 -4.09992,0.6652 -12.29201,0.654 -16.1582,-0.023 -11.05183,-1.9332 -20.31331,-7.128 -26.52149,-14.8769 -1.68457,-2.1027 -6.09051,-9.2831 -7.91992,-12.9082 -2.44917,-4.8533 -3.5625,-10.8988 -3.5625,-19.3379 0,-8.3808 1.26843,-15.1479 3.76953,-20.0977 1.83307,-3.6277 6.7488,-10.1496 12.56836,-16.6797 2.95873,-3.3199 3.28959,-3.8534 2.77735,-4.4707 -0.52396,-0.6313 -4.98223,-2.1025 -8.12891,-2.6816 -1.488,-0.274 -5.07278,-0.437 -9.32422,-0.4219 z m 80.91602,63.0332 c -1.39412,0 -3.2513,0 -5.72266,0.014 -5.46043,0.026 -14.96488,0.1414 -21.12109,0.2578 l -11.19336,0.2129 -1.26367,3.625 c -2.13854,6.1275 -3.74349,8.7838 -8.94922,14.8164 -3.38706,3.925 -3.67803,4.3926 -3.13672,5.0449 0.50241,0.6054 3.12046,1.418 6.05273,1.8789 0.94258,0.1482 2.38702,0.2234 4.04688,0.2442 2.5121,0.1099 5.59453,0.026 8.125,-0.25 0.13833,-0.015 0.27063,-0.032 0.4082,-0.049 1.99911,-0.1583 3.81157,-0.3673 5.01758,-0.623 9.55808,-2.0258 17.28558,-6.1565 23.80859,-12.7266 4.43774,-4.4698 8.13477,-9.8074 8.13477,-11.748 0,-0.5441 -0.0265,-0.6824 -4.20703,-0.6973 z"
         style="fill:#008081;fill-opacity:1;stroke-width:0.34532371"
         inkscape:connector-curvature="0" />
      <path
         id="path952"
         transform="matrix(0.26458333,0,0,0.26458333,0,-892)"
         d="m -565.79688,3768.748 c -6.54973,-0.01 -9.63349,0.1399 -12.77734,0.6075 -18.22541,2.7116 -35.21804,10.0681 -49.11914,21.2617 -4.32858,3.4855 -10.98392,10.3437 -14.10547,14.5371 -17.17901,23.0777 -21.28271,53.3707 -11.02148,81.373 1.87449,5.1155 6.33418,13.9346 9.40429,18.5997 10.73348,16.3094 27.66431,30.5856 42.75196,36.0507 12.25583,4.4394 23.33941,6.1092 43.67187,6.5762 5.98273,0.1376 11.71926,0.2764 12.74805,0.3066 1.02875,0.03 1.76865,-0.044 1.64453,-0.1679 -0.12397,-0.124 -1.89721,-0.6486 -3.94141,-1.166 -6.76845,-1.7131 -15.59945,-5.5187 -21.73242,-9.3653 -22.21844,-13.9353 -39.10686,-36.9041 -44.28515,-60.2304 -2.91753,-13.1424 -2.15099,-27.4043 2.03711,-37.9473 4.89978,-12.3345 14.24778,-21.3212 26.76757,-25.7305 14.88949,-5.2439 30.86574,-4.4381 44.54688,2.2481 8.55235,4.1796 14.03371,10.3255 18.21289,20.4199 0.80893,1.954 1.64489,3.6212 1.85937,3.7051 0.2143,0.084 4.56639,-10e-4 9.66993,-0.1895 5.10349,-0.1886 13.94084,-0.2933 19.63867,-0.2324 10.19697,0.1092 10.35817,0.1 10.25,-0.5801 -0.0605,-0.3798 -0.9434,-2.7899 -1.96289,-5.3554 -13.05615,-32.855 -34.72316,-54.4564 -62.16211,-61.9766 -7.94944,-2.1787 -12.40545,-2.7328 -22.09571,-2.7442 z m 71.48438,106.752 c -12.15247,-0.023 -28.36065,0.2041 -28.72266,0.5645 -0.22185,0.2207 -0.8131,1.6426 -1.31445,3.1621 -1.9454,5.8956 -3.6822,8.7369 -9.5918,15.6933 -1.47193,1.7327 -2.67578,3.4404 -2.67578,3.793 0,1.0369 3.29655,2.0524 8.28711,2.5547 2.67073,0.2691 6.76551,0.2141 9.94141,-0.1348 12.15689,-1.3356 20.99706,-5.418 29.11719,-13.4453 4.54227,-4.4903 8.62945,-10.4344 8.15429,-11.8594 -0.0714,-0.2143 -5.90388,-0.3152 -13.19531,-0.3281 z"
         style="fill:#0000cc;fill-opacity:1;stroke-width:0.34532371"
         inkscape:connector-curvature="0" />
    </g>
  </g>
</svg>
