<?xml version="1.0" encoding="UTF-8" standalone="no"?>
<!-- Created with Inkscape (http://www.inkscape.org/) -->

<svg
   xmlns:dc="http://purl.org/dc/elements/1.1/"
   xmlns:cc="http://creativecommons.org/ns#"
   xmlns:rdf="http://www.w3.org/1999/02/22-rdf-syntax-ns#"
   xmlns:svg="http://www.w3.org/2000/svg"
   xmlns="http://www.w3.org/2000/svg"
   xmlns:sodipodi="http://sodipodi.sourceforge.net/DTD/sodipodi-0.dtd"
   xmlns:inkscape="http://www.inkscape.org/namespaces/inkscape"
   width="79.887123mm"
   height="22.096893mm"
   viewBox="0 0 79.887123 22.096893"
   version="1.1"
   id="svg8"
   inkscape:version="0.92.4 (5da689c313, 2019-01-14)"
   sodipodi:docname="logo.svg">
  <defs
     id="defs2" />
  <sodipodi:namedview
     id="base"
     pagecolor="#ffffff"
     bordercolor="#666666"
     borderopacity="1.0"
     inkscape:pageopacity="0.0"
     inkscape:pageshadow="2"
     inkscape:zoom="2.2443704"
     inkscape:cx="196.96646"
     inkscape:cy="101.42305"
     inkscape:document-units="mm"
     inkscape:current-layer="layer1"
     showgrid="false"
     inkscape:snap-global="false"
     units="mm"
     fit-margin-top="0"
     fit-margin-left="0"
     fit-margin-right="0"
     fit-margin-bottom="0" />
  <metadata
     id="metadata5">
    <rdf:RDF>
      <cc:Work
         rdf:about="">
        <dc:format>image/svg+xml</dc:format>
        <dc:type
           rdf:resource="http://purl.org/dc/dcmitype/StillImage" />
        <dc:title />
      </cc:Work>
    </rdf:RDF>
  </metadata>
  <g
     inkscape:label="Capa 1"
     inkscape:groupmode="layer"
     id="layer1"
     transform="translate(183.20103,-197.76408)">
    <g
       id="g999"
       transform="translate(-154.53524,54.629891)"
       style="fill:#1a1a1a">
      <path
         style="fill:#1a1a1a;fill-opacity:1;stroke-width:0.09136691"
         d="m -5.4773651,165.11232 c -1.0164476,-0.2741 -1.4563336,-0.77219 -1.4563336,-1.64905 0,-0.70898 0.202131,-1.10515 0.7562895,-1.48226 0.4119826,-0.28037 1.2995755,-0.56606 1.4113538,-0.45429 0.030983,0.031 -0.043189,0.16216 -0.1648259,0.29148 -0.206672,0.21973 -0.2231454,0.31309 -0.2514417,1.42464 -0.030772,1.20898 0.048644,1.65499 0.3127489,1.75633 0.1825876,0.0701 0.1598281,0.23905 -0.031211,0.23168 -0.087941,-0.003 -0.3474043,-0.0567 -0.57658,-0.11853 z m 1.3760405,0.0422 c 0,-0.0473 0.1492752,-0.13529 0.3317258,-0.1955 0.1824506,-0.0602 0.4873602,-0.25009 0.677577,-0.42194 0.3859703,-0.3487 0.6118933,-0.25801 0.2683172,0.10771 -0.3110952,0.33114 -1.27762,0.71676 -1.27762,0.50973 z m 36.1197496,-0.0182 c -1.489719,-0.27364 -2.132366,-1.81282 -1.200186,-2.87451 0.330447,-0.37636 0.632597,-0.54839 1.178688,-0.67109 0.485779,-0.10914 0.612478,-0.0438 0.364024,0.18764 -0.17579,0.16377 -0.189614,0.27758 -0.189614,1.56055 0,1.27486 0.01494,1.3998 0.189605,1.58572 0.234438,0.24954 0.149458,0.30206 -0.342517,0.21169 z m 1.112721,0.0101 c -0.02301,-0.0372 0.03943,-0.14122 0.13875,-0.2311 0.164872,-0.14922 0.180578,-0.28502 0.180578,-1.56189 0,-1.31482 -0.01179,-1.40945 -0.197115,-1.58211 -0.275873,-0.25702 -0.06106,-0.32178 0.503614,-0.15183 2.099082,0.63173 1.977317,3.1161 -0.1724,3.51771 -0.22638,0.0423 -0.43043,0.0464 -0.453427,0.009 z m 6.486594,0.0305 c -0.391617,-0.10593 -0.593885,-0.40352 -0.593885,-0.87378 0,-0.35306 -0.04557,-0.4875 -0.220011,-0.64917 l -0.220021,-0.2039 0.220021,-0.19598 c 0.18234,-0.16241 0.220011,-0.28257 0.220011,-0.7017 0,-0.43234 -0.03646,-0.54074 -0.251259,-0.74691 l -0.251259,-0.24117 0.697879,0.0404 c 0.797331,0.0461 1.262334,0.25965 1.396561,0.64131 0.129787,0.36904 -0.06174,0.687 -0.541678,0.89931 -0.225877,0.0999 -0.410676,0.21434 -0.410676,0.25428 0,0.0399 0.162624,0.12136 0.361384,0.18091 0.476296,0.1427 0.643652,0.32429 0.643652,0.6984 0,0.32767 0.127969,0.46767 0.38831,0.42484 0.231578,-0.0381 0.196137,0.13995 -0.06144,0.30873 -0.230491,0.15102 -1.060815,0.25015 -1.377584,0.16447 z m -66.926259,-0.12255 c 0,-0.0503 0.04321,-0.0914 0.09603,-0.0914 0.168628,0 0.360806,-0.61648 0.360806,-1.15743 0,-0.73756 0.207095,-0.50328 0.257705,0.29153 0.03138,0.49279 0.07545,0.62498 0.255573,0.76667 0.119712,0.0942 0.217657,0.19613 0.217657,0.22659 0,0.0305 -0.267248,0.0554 -0.593885,0.0554 -0.335012,0 -0.593885,-0.0398 -0.593885,-0.0914 z m 1.480144,-0.93651 c -0.299819,-0.56534 -0.671472,-1.28011 -0.825897,-1.58839 -0.154424,-0.30828 -0.395639,-0.64705 -0.536035,-0.75282 l -0.255262,-0.19232 1.044844,0.0219 1.044846,0.0219 0.360186,0.67001 c 0.286137,0.53226 0.395351,0.66081 0.531234,0.62528 0.122,-0.0319 0.171048,0.004 0.171048,0.12567 0,0.17516 -0.866783,2.09666 -0.945796,2.09666 -0.02422,0 -0.289349,-0.46254 -0.589168,-1.02787 z m 1.883203,0.84158 c 0.190958,-0.1779 0.199962,-0.25813 0.199962,-1.78166 v -1.59536 h 1.019197 c 0.981594,0 1.013618,0.006 0.867986,0.16709 -0.12731,0.14067 -0.151211,0.39589 -0.151211,1.61457 0,1.21868 0.0239,1.47389 0.151211,1.61457 0.145773,0.16107 0.107366,0.16708 -1.067948,0.16708 h -1.219158 z m 3.426373,0.0225 c 0.227504,-0.25139 0.229999,-2.98152 0.003,-3.2324 -0.145631,-0.16092 -0.113544,-0.16709 0.869962,-0.16709 h 1.021169 l -0.02482,1.75882 -0.02481,1.75881 -0.999309,0.0261 c -0.970078,0.0253 -0.994801,0.0211 -0.845144,-0.14425 z m 2.477316,0.0833 c 0.02997,-0.0485 0.183217,-0.11644 0.340556,-0.15099 0.15734,-0.0346 0.4647,-0.22749 0.683024,-0.42873 0.442418,-0.40781 0.525201,-0.36199 0.473925,0.26232 l -0.02893,0.35223 -0.761531,0.0267 c -0.472617,0.0165 -0.740859,-0.007 -0.707045,-0.0615 z m 2.427928,0.002 c 0,-0.0466 0.06167,-0.10835 0.13705,-0.13727 0.11419,-0.0438 0.137051,-0.30502 0.137051,-1.56588 0,-1.26086 -0.02286,-1.52206 -0.137051,-1.56588 -0.375278,-0.14401 -0.04921,-0.21964 0.845144,-0.19603 l 0.982195,0.0259 v 1.73597 1.73597 l -0.982195,0.0259 c -0.560854,0.0148 -0.982194,-0.0104 -0.982194,-0.0588 z m 2.558273,0.037 c 0,-0.0365 0.0813,-0.13456 0.180671,-0.21799 0.163234,-0.13706 0.182607,-0.28292 0.200722,-1.51136 0.01921,-1.30223 0.01157,-1.36653 -0.18067,-1.5222 -0.298868,-0.24201 -0.246446,-0.3014 0.210721,-0.23874 1.838601,0.25201 2.381536,2.24895 0.86597,3.18507 -0.384478,0.23749 -1.277414,0.45084 -1.277414,0.30522 z m 3.015108,-0.0107 c 0,-0.0287 0.06167,-0.11388 0.1370511,-0.18926 0.109923,-0.10992 0.13705,-0.41477 0.13705,-1.54018 0,-1.12541 -0.02713,-1.43026 -0.13705,-1.54019 -0.07538,-0.0754 -0.1370511,-0.16054 -0.1370511,-0.18926 0,-0.0287 0.4933821,-0.0522 1.0964031,-0.0522 0.603022,0 1.0950966,0.0308 1.0934977,0.0685 -0.00164,0.0377 -0.063272,0.14833 -0.1370504,0.24588 -0.1032973,0.13657 -0.1341453,0.47516 -0.1341453,1.47239 0,1.1718 0.01802,1.31794 0.1893674,1.53577 l 0.1893671,0.24074 h -1.1487215 c -0.631795,0 -1.1487181,-0.0235 -1.1487181,-0.0522 z m 8.4904895,-0.18853 c 0.1714317,-0.21793 0.1893671,-0.36391 0.1893671,-1.54091 0,-1.17701 -0.017935,-1.32298 -0.1893671,-1.54092 l -0.189367,-0.24074 h 1.1487195 c 0.6317931,0 1.1487196,0.0235 1.1487196,0.0522 0,0.0287 -0.061673,0.11389 -0.1370504,0.18926 -0.1099235,0.10993 -0.1370503,0.41478 -0.1370503,1.54019 0,1.12541 0.027127,1.43026 0.1370503,1.54018 0.075378,0.0754 0.1370504,0.16055 0.1370504,0.18926 0,0.0287 -0.5169265,0.0522 -1.1487196,0.0522 h -1.1487195 z m 3.2958419,0.19921 c 0,-0.0228 0.1027877,-0.14432 0.2284172,-0.26995 0.213689,-0.21369 0.2284173,-0.2883 0.2284173,-1.15742 0,-0.81543 0.016757,-0.91511 0.1370504,-0.81527 0.1038567,0.0862 0.1370503,0.31967 0.1370503,0.96391 0,0.79802 0.014006,0.86119 0.2284173,1.02984 0.1256295,0.0988 0.2284173,0.20459 0.2284173,0.23505 0,0.0305 -0.2672482,0.0554 -0.5938849,0.0554 -0.3266367,0 -0.5938849,-0.0187 -0.5938849,-0.0415 z m 1.7658665,-1.60415 c -0.7953398,-0.90506 -1.5180338,-1.66846 -1.6059744,-1.69644 -0.4198401,-0.13357 -0.068498,-0.22129 0.8862955,-0.22129 h 1.0461785 l 1.0552603,1.20215 1.0552513,1.20215 v 0.57951 0.5795 H 5.4535706 4.9581153 Z m 3.6253566,1.57706 c 0,-0.0377 0.1149761,-0.13358 0.254804,-0.21309 0.1964937,-0.11174 0.354467,-0.38664 0.6956676,-1.21061 0.4049473,-0.97789 0.6021902,-1.28203 0.6021902,-0.92852 0,0.0756 -0.1639762,0.53152 -0.3643895,1.01306 -0.2843521,0.68323 -0.3438503,0.91391 -0.2708846,1.05024 0.05143,0.0961 0.1331672,0.17471 0.1816556,0.17471 0.048479,0 0.088151,0.0411 0.088151,0.0914 0,0.0515 -0.2588698,0.0914 -0.5938849,0.0914 -0.3266366,0 -0.593629,-0.0308 -0.5933092,-0.0685 z m 2.5576977,0.0216 c 0,-0.0258 0.049101,-0.12555 0.1091195,-0.22165 0.083811,-0.13421 0.084268,-0.22926 0.00192,-0.40991 -0.096292,-0.21134 -0.1583205,-0.23519 -0.6116375,-0.23519 -0.277463,0 -0.5044732,-0.0411 -0.5044732,-0.0914 0,-0.0503 0.1863063,-0.0914 0.41402,-0.0914 0.2493038,0 0.4316447,-0.0459 0.4583238,-0.11545 0.024358,-0.0635 -0.1196175,-0.58688 -0.3199577,-1.16306 -0.2003311,-0.57619 -0.3308031,-1.08106 -0.2899255,-1.12193 0.040868,-0.0409 0.4173457,-0.0623 0.8366102,-0.0476 l 0.7622832,0.0268 0.566283,1.58002 c 0.311461,0.86901 0.639093,1.66048 0.728085,1.75881 0.159809,0.17658 0.14752,0.17879 -0.994438,0.17879 -0.635941,0 -1.156248,-0.0211 -1.156248,-0.0469 z m 5.5135358,-0.12016 c 0.127311,-0.14068 0.151212,-0.39589 0.151212,-1.61457 0,-1.21868 -0.0239,-1.4739 -0.151212,-1.61457 -0.145776,-0.16108 -0.107365,-0.16709 1.067951,-0.16709 h 1.219155 l -0.199957,0.1863 c -0.190957,0.1779 -0.199965,0.25813 -0.199965,1.78165 v 1.59536 H 16.0766 c -0.981592,0 -1.013616,-0.006 -0.867986,-0.16708 z m 2.436317,0.0986 c 9.14e-4,-0.0377 0.164415,-0.13719 0.364234,-0.22111 0.229422,-0.0964 0.435263,-0.27454 0.558563,-0.48352 0.107401,-0.18202 0.241574,-0.31568 0.298175,-0.29703 0.10002,0.033 0.241383,0.94694 0.159189,1.02914 -0.07074,0.0707 -1.381139,0.0446 -1.380161,-0.0275 z m 1.826406,-0.11421 c 0.12563,-0.0983 0.255398,-0.17959 0.288372,-0.1807 0.03298,-0.001 0.253607,-0.46458 0.490275,-1.02991 0.449315,-1.07326 0.5461,-1.24114 0.653602,-1.13364 0.03564,0.0356 -0.107703,0.48516 -0.318532,0.99895 -0.21082,0.51378 -0.383202,0.97261 -0.383047,1.01963 0,0.047 0.08966,0.18063 0.198924,0.29694 l 0.198659,0.21146 -0.678335,-0.002 -0.678335,-0.002 z m 2.466907,0.13104 c 0,-0.0284 0.04404,-0.13397 0.09786,-0.23454 0.07468,-0.13955 0.06336,-0.2355 -0.04779,-0.40515 -0.121993,-0.18619 -0.2195,-0.22229 -0.600381,-0.22229 -0.250099,0 -0.454724,-0.0411 -0.454724,-0.0914 0,-0.0503 0.185018,-0.0914 0.411151,-0.0914 0.365476,0 0.411151,-0.0228 0.411123,-0.20558 -1.8e-5,-0.11306 -0.14573,-0.61319 -0.323804,-1.11139 -0.178083,-0.49819 -0.302708,-0.96074 -0.276942,-1.02787 0.03395,-0.0885 0.258787,-0.12207 0.817386,-0.12207 0.757533,0 0.772087,0.004 0.861947,0.25126 0.05026,0.13819 0.302863,0.84628 0.561331,1.57352 0.258458,0.72724 0.529717,1.38832 0.602793,1.46906 0.07307,0.0807 0.132856,0.17441 0.132856,0.20814 0,0.0337 -0.493381,0.0613 -1.096403,0.0613 -0.603021,0 -1.096402,-0.0233 -1.096402,-0.0517 z m 3.015107,-0.0268 c 0,-0.0466 0.06167,-0.10835 0.137051,-0.13727 0.11419,-0.0438 0.13705,-0.30502 0.13705,-1.56588 0,-1.26086 -0.02286,-1.52206 -0.13705,-1.56588 -0.375281,-0.14401 -0.04921,-0.21964 0.845144,-0.19603 l 0.982194,0.0259 v 1.73597 1.73597 l -0.982194,0.0259 c -0.560856,0.0148 -0.982195,-0.0104 -0.982195,-0.0588 z m 2.763849,-0.11475 c 0.224059,-0.16717 0.251259,-0.24526 0.251259,-0.72151 0,-0.52054 -0.09599,-0.73229 -0.386673,-0.85299 -0.07749,-0.0322 -0.03265,-0.11303 0.135414,-0.2442 0.212547,-0.16588 0.251259,-0.2643 0.251259,-0.63878 0,-0.42128 -0.157269,-0.72984 -0.371991,-0.72984 -0.04666,0 -0.08484,-0.0411 -0.08484,-0.0914 0,-0.0503 0.215854,-0.0911 0.479676,-0.0909 0.958649,0.001 1.621763,0.33776 1.621763,0.82356 0,0.28488 -0.186106,0.47304 -0.66241,0.66973 -0.188445,0.0778 -0.342626,0.18151 -0.342626,0.23043 0,0.0489 0.154181,0.13831 0.342626,0.19865 0.732159,0.23443 0.974747,0.7882 0.537027,1.22592 -0.274667,0.27467 -0.774609,0.41415 -1.473538,0.41111 l -0.548202,-0.002 z m 8.382914,0.14104 c 0,-0.0287 0.06167,-0.11388 0.13705,-0.18926 0.109924,-0.10992 0.137051,-0.41477 0.137051,-1.54018 0,-1.12541 -0.02713,-1.43026 -0.137051,-1.54019 -0.07538,-0.0754 -0.13705,-0.16193 -0.13705,-0.19235 0,-0.0304 0.441987,-0.0436 0.982194,-0.0294 l 0.982195,0.0259 0.02463,1.59892 c 0.0236,1.53134 0.03325,1.60559 0.228417,1.75678 0.196101,0.1519 0.158111,0.15794 -1.006826,0.15989 -0.665837,0.001 -1.210612,-0.0215 -1.210612,-0.0502 z m 5.664748,-0.033 c 0,-0.0469 0.08228,-0.11132 0.182835,-0.14324 0.223812,-0.071 0.305704,-0.21298 0.788935,-1.36754 0.20965,-0.50091 0.426244,-0.92577 0.48133,-0.94413 0.172135,-0.0574 0.113203,0.17974 -0.287176,1.15544 l -0.387852,0.94517 0.204853,0.16588 c 0.112665,0.0912 0.204845,0.19012 0.204845,0.21975 0,0.0296 -0.267248,0.0539 -0.593885,0.0539 -0.326637,0 -0.593885,-0.0383 -0.593885,-0.0852 z m 2.558274,0.0383 c 0,-0.0258 0.04849,-0.12456 0.107749,-0.21945 0.08635,-0.13827 0.07686,-0.21968 -0.04779,-0.40992 -0.132985,-0.20296 -0.221465,-0.23738 -0.610267,-0.23738 -0.250099,0 -0.454724,-0.0411 -0.454724,-0.0914 0,-0.0503 0.181591,-0.0914 0.40354,-0.0914 0.241263,0 0.419109,-0.0459 0.442261,-0.11421 0.0213,-0.0628 -0.119142,-0.58501 -0.3121,-1.16043 -0.192948,-0.57542 -0.316193,-1.08085 -0.273872,-1.12317 0.04232,-0.0423 0.416414,-0.0649 0.83132,-0.0502 l 0.754371,0.0268 0.564437,1.574 c 0.310447,0.8657 0.614726,1.62427 0.67617,1.68572 0.06144,0.0614 0.111714,0.14461 0.111714,0.18481 0,0.0402 -0.493381,0.0731 -1.096403,0.0731 -0.603021,0 -1.096402,-0.0211 -1.096402,-0.0469 z m 3.135045,-0.1169 c 0.227503,-0.25139 0.229998,-2.98152 0.0029,-3.2324 -0.145785,-0.16109 -0.107256,-0.16701 1.073561,-0.16505 1.178359,0.002 1.217053,0.008 1.020988,0.15989 -0.195168,0.15119 -0.204817,0.22544 -0.228417,1.75678 l -0.02463,1.59892 -0.999308,0.0261 c -0.970079,0.0253 -0.994803,0.0211 -0.845144,-0.14425 z m 2.438336,0.0948 c 0,-0.0424 0.145447,-0.12961 0.323229,-0.19389 0.20034,-0.0724 0.414102,-0.25421 0.562272,-0.47811 0.131477,-0.19868 0.284114,-0.34621 0.33919,-0.32786 0.05616,0.0187 0.100129,0.25068 0.100129,0.52828 v 0.49491 l -0.66241,0.0268 c -0.364326,0.0148 -0.66241,-0.008 -0.66241,-0.0502 z m -67.702878,-1.43854 -0.309946,-0.31979 0.309946,-0.31978 c 0.170471,-0.17588 0.342997,-0.31978 0.383391,-0.31978 0.0404,0 0.07344,0.2878 0.07344,0.63956 0,0.35177 -0.03305,0.63957 -0.07344,0.63957 -0.04039,0 -0.21292,-0.1439 -0.383391,-0.31978 z m 23.6411874,-0.464 c -0.037689,-0.0379 -0.068525,-0.19602 -0.068525,-0.35129 0,-0.44342 -0.1533137,-0.86712 -0.3830649,-1.05864 l -0.21082,-0.17575 0.66241,-0.003 c 0.3643256,-0.002 0.6624101,0.0195 0.6624101,0.047 0,0.0275 -0.1044872,0.1406 -0.2321907,0.25126 -0.1841226,0.15954 -0.2455943,0.32107 -0.2969425,0.7803 -0.035615,0.31851 -0.095588,0.54807 -0.1332769,0.51013 z M -3.12178,162.42067 c -0.1742458,-0.24255 -0.4659347,-0.51176 -0.6481843,-0.59824 -0.4696624,-0.22287 -0.4104841,-0.32076 0.1293938,-0.21401 0.3186239,0.063 0.5271871,0.0608 0.6761334,-0.007 0.1184572,-0.054 0.2400483,-0.0735 0.2701811,-0.0433 0.08784,0.0878 0.063098,1.1962 -0.027949,1.25247 -0.04551,0.0281 -0.22532,-0.14731 -0.3995749,-0.38985 z m -14.02028,-0.24618 c -0.17621,-0.18454 -0.424618,-0.33331 -0.616727,-0.36935 -0.562508,-0.10553 -0.347139,-0.22275 0.409261,-0.22275 h 0.730935 v 0.45684 c 0,0.54612 -0.105214,0.5733 -0.523469,0.13526 z m -7.790919,-3.92068 c -2.514173,-0.69958 -3.883459,-3.57765 -3.719619,-7.81818 0.05889,-1.52422 0.233648,-2.53155 0.628509,-3.6228 0.525148,-1.45132 1.631749,-2.80015 2.74096,-3.34096 0.536477,-0.26156 1.255983,-0.42449 1.275134,-0.28874 0.112714,0.79895 0.07776,0.94194 -0.3281,1.34205 -0.269943,0.26613 -0.423959,0.51037 -0.475279,0.7537 -0.04176,0.19799 -0.07592,2.76522 -0.07592,5.70495 0,4.94199 0.0122,5.36729 0.161794,5.64105 0.08899,0.16284 0.274004,0.36747 0.411151,0.45472 0.137146,0.0873 0.272157,0.19013 0.300024,0.22862 0.04243,0.0586 0.0441,0.45554 0.004,0.96212 -0.01118,0.14135 -0.378964,0.13476 -0.922698,-0.0165 z m 1.827338,-0.4432 v -0.57393 l 0.409034,-0.12078 c 0.810205,-0.23922 1.483757,-1.03604 1.956109,-2.3141 0.275243,-0.74473 0.492616,-0.94887 0.708968,-0.66581 0.371053,0.48547 -0.220113,2.19787 -1.109669,3.2143 -0.430622,0.49205 -1.348389,1.03426 -1.750618,1.03426 -0.201495,0 -0.213824,-0.0331 -0.213824,-0.57394 z m 53.829745,0.2084 c -0.706376,-0.33417 -0.774499,-0.33654 -1.011505,-0.0352 -0.231277,0.29402 -0.420151,0.23673 -0.497694,-0.15099 -0.09242,-0.46208 -0.06842,-3.15675 0.03043,-3.41674 0.171861,-0.45202 0.341712,-0.27244 0.6349,0.67126 0.324581,1.04476 0.878273,1.94815 1.40028,2.28468 0.297902,0.19205 0.342626,0.2666 0.342626,0.57104 0,0.43853 -0.112583,0.44804 -0.899032,0.076 z m 1.629967,-0.10838 c 0,-0.37292 0.02565,-0.41813 0.315654,-0.55643 0.396185,-0.18893 0.631099,-0.62854 0.624621,-1.16894 -0.0094,-0.78261 -0.292246,-1.09541 -1.797635,-1.98776 -0.99589,-0.59034 -1.540875,-1.12591 -1.87557,-1.84316 -0.913112,-1.95685 -0.242826,-4.60327 1.336898,-5.27835 0.76296,-0.32604 1.030564,-0.30272 1.030564,0.0898 0,0.22075 -0.0931,0.38834 -0.375682,0.67627 -0.296815,0.30243 -0.385358,0.46871 -0.421805,0.79208 -0.09912,0.87936 0.195946,1.25405 1.67132,2.12236 1.187843,0.69908 1.612535,1.10706 2.028464,1.94863 0.340159,0.68827 0.341219,0.69401 0.337729,1.83725 -0.003,0.97968 -0.03438,1.22465 -0.215343,1.68075 -0.414449,1.04457 -1.354706,1.88574 -2.270906,2.03158 l -0.388309,0.0618 z m 4.980748,0.18448 c -0.332009,-0.26115 -0.50377,-0.69413 -0.50377,-1.26989 0,-0.86457 0.453975,-1.45578 1.117865,-1.45578 1.089551,0 1.55004,1.85925 0.655092,2.64502 -0.394477,0.34636 -0.891266,0.37793 -1.269187,0.0806 z m 12.078139,-0.0716 c -0.289259,-0.25397 -0.522107,-0.77113 -0.520965,-1.15707 0.0012,-0.39264 0.219883,-0.91332 0.502289,-1.19573 0.534707,-0.53471 1.283276,-0.36392 1.632736,0.37251 0.181692,0.38289 0.192811,1.1451 0.02266,1.55235 -0.299601,0.71703 -1.076202,0.92009 -1.636719,0.42794 z m -68.414153,-0.10282 c -0.104388,-0.10439 -0.166061,-0.25165 -0.13705,-0.32725 0.02901,-0.0756 0.05275,-0.16644 0.05275,-0.20185 0,-0.0354 0.209585,-0.22087 0.465746,-0.41211 0.332097,-0.24793 0.529968,-0.48799 0.689548,-0.83656 0.14638,-0.31973 0.53839,-2.01051 1.133174,-4.8875 0.500156,-2.41925 0.910623,-4.42598 0.912152,-4.45938 0.01042,-0.22786 0.181558,0.33209 0.278076,0.90987 l 0.116349,0.6965 -0.757189,3.63347 c -0.905591,4.34559 -0.905912,4.3536 -0.199568,4.97645 0.514825,0.45398 0.622923,0.82619 0.291459,1.00358 -0.0972,0.052 -0.734484,0.0946 -1.416187,0.0946 -1.133014,0 -1.255759,-0.0163 -1.429258,-0.1898 z m 5.192136,0.0911 c -0.257681,-0.15009 -0.191668,-0.52925 0.159893,-0.91839 0.202117,-0.22372 0.319738,-0.44631 0.319659,-0.60495 -1.83e-4,-0.43007 -0.263849,-1.77331 -0.374121,-1.90618 -0.07821,-0.0942 -0.371394,-0.12648 -1.150094,-0.12648 h -1.045131 l 0.06296,-0.43399 c 0.108032,-0.74467 0.12072,-0.75378 1.050722,-0.75378 0.594987,0 0.834686,-0.0332 0.868064,-0.12015 0.02536,-0.0661 -0.28705,-2.0499 -0.694243,-4.40846 -0.720165,-4.17135 -0.776726,-4.68516 -0.57393,-5.21364 0.03814,-0.0994 0.366983,-0.12537 1.586179,-0.12537 0.938916,0 1.560329,0.036 1.595212,0.0925 0.03143,0.0508 0.547773,2.8364 1.147434,6.1901 1.3920681,7.78539 1.2228961,7.02162 1.6486081,7.4431 0.381421,0.37762 0.440521,0.61218 0.211865,0.84083 -0.122925,0.12293 -0.467877,0.14318 -2.3983811,0.1408 -1.360851,-0.002 -2.318197,-0.0397 -2.414697,-0.0959 z m 5.9105349,-0.12526 c -0.1839738,-0.28079 -0.1048161,-0.55472 0.217974,-0.75429 0.4954097,-0.30631 0.4727507,-0.002 0.4727507,-6.35274 v -5.92554 l -0.2263433,-0.20142 c -0.1244874,-0.11078 -0.3095054,-0.27337 -0.4111511,-0.36131 -0.2167999,-0.18757 -0.2360531,-0.42029 -0.05524,-0.66779 0.1214997,-0.16633 0.273452,-0.17884 2.4440648,-0.20122 2.6307273,-0.0271 2.7713318,-4.5e-4 2.7713318,0.52544 0,0.31381 -0.071504,0.38962 -0.7427581,0.7875 -0.1641041,0.0973 -0.1718886,0.36558 -0.1955069,6.7383 l -0.024596,6.63701 h -2.0519001 -2.0518906 z m 5.0763362,-0.31474 c 0,-0.52436 0.00914,-0.54521 0.2633833,-0.60105 0.7061018,-0.15509 1.3824179,-1.136 1.8010245,-2.61214 0.3090212,-1.08973 0.366829,-1.2 0.6105319,-1.16464 0.2962755,0.043 0.3465821,0.48568 0.3190076,2.80717 l -0.024523,2.06366 -1.4847122,0.0251 -1.4847122,0.0251 z m 3.8896171,0.3951 c -0.2236571,-0.22366 -0.1751778,-0.37866 0.2659051,-0.85022 0.7369837,-0.78789 0.7267141,-0.72928 0.7782907,-4.44253 0.025126,-1.80906 0.07197,-3.24809 0.1041035,-3.19784 0.032125,0.0502 0.1863062,0.5724 0.3426259,1.16034 0.2758549,1.03757 0.2842059,1.12637 0.2842059,3.02343 0,2.34835 0.059589,2.6239 0.7139501,3.30117 0.5314813,0.55009 0.5962056,0.69882 0.4160666,0.95601 -0.1271188,0.18148 -0.2151599,0.19322 -1.4484578,0.19322 -1.0719166,0 -1.3394845,-0.0264 -1.45669,-0.14358 z M 5.228671,157.77357 C 5.178657,157.58198 4.4951683,154.9172 3.7098058,151.85184 1.7674367,144.27057 1.948462,144.81973 1.2893229,144.50905 0.99439047,144.37003 0.96953868,144.32674 0.96953868,143.952 c 0,-0.35554 0.028543,-0.41425 0.22841722,-0.46985 0.4181316,-0.11631 3.9109513,-0.0932 3.9848489,0.0264 0.036775,0.0595 0.4026174,1.3649 0.8129827,2.9009 0.5318559,1.99074 0.7831423,2.79272 0.8750483,2.79272 0.082934,0 0.1729667,-0.19553 0.2524193,-0.5482 0.3094232,-1.37352 0.3318264,-1.37643 0.3524479,-0.0457 l 0.019123,1.23346 -0.9335871,4.11041 c -0.7537587,3.31866 -0.963263,4.11613 -1.0876225,4.14008 -0.1115316,0.0215 -0.1791065,-0.0664 -0.2449455,-0.31869 z m 2.2736015,0.15417 c -0.1005036,-0.10051 -0.1827338,-0.23526 -0.1827338,-0.29946 0,-0.1772 0.2685364,-0.52285 0.4062081,-0.52285 0.066963,0 0.2188146,-0.0786 0.3374454,-0.17463 l 0.215699,-0.17464 0.045683,-6.65504 0.045683,-6.65504 1.9547498,-0.0247 c 1.63745,-0.0207 1.989687,-0.002 2.169963,0.11631 0.307377,0.2014 0.289981,0.61598 -0.03604,0.85911 -0.623716,0.46512 -0.571043,-0.12355 -0.571043,6.38164 v 5.88421 l 0.263913,0.24423 c 0.145155,0.13433 0.330173,0.29724 0.411151,0.36204 0.187659,0.15015 0.18955,0.51207 0.0037,0.69796 -0.123144,0.12314 -0.480764,0.14358 -2.51259,0.14358 -2.2471963,0 -2.3784083,-0.009 -2.5517496,-0.18273 z m 6.2058865,-0.007 c -0.104386,-0.10438 -0.166059,-0.25165 -0.13705,-0.32725 0.02901,-0.0756 0.05275,-0.17136 0.05275,-0.21278 0,-0.0414 0.200861,-0.21963 0.446355,-0.396 0.737934,-0.53015 0.81333,-0.76467 1.837297,-5.7148 0.502801,-2.43067 0.91482,-4.44531 0.915588,-4.47698 9.13e-4,-0.0317 0.03877,10e-4 0.08443,0.0737 0.04567,0.0722 0.131504,0.46277 0.190737,0.86799 l 0.107695,0.73675 -0.746477,3.56331 c -0.902705,4.30909 -0.904514,4.35416 -0.199701,4.97566 0.517192,0.45606 0.625845,0.82797 0.293818,1.00566 -0.0972,0.052 -0.73448,0.0946 -1.416187,0.0946 -1.133014,0 -1.255756,-0.0163 -1.429253,-0.1898 z m 5.192135,0.0911 c -0.257682,-0.15009 -0.19167,-0.52925 0.159892,-0.91838 0.202122,-0.22372 0.319739,-0.44632 0.319656,-0.60496 0,-0.43007 -0.263849,-1.77331 -0.37412,-1.90618 -0.0782,-0.0942 -0.371388,-0.12648 -1.15009,-0.12648 h -1.045128 l 0.06295,-0.43399 c 0.108032,-0.74467 0.120723,-0.75378 1.050729,-0.75378 0.593382,0 0.834728,-0.0333 0.867885,-0.11969 0.02526,-0.0658 -0.287523,-2.04959 -0.695083,-4.40834 -0.722036,-4.17876 -0.777286,-4.68163 -0.572916,-5.21422 0.03814,-0.0994 0.366984,-0.12537 1.586184,-0.12537 0.930152,0 1.560455,0.0362 1.594718,0.0917 0.03116,0.0504 0.547279,2.83597 1.14692,6.19011 1.389572,7.77259 1.223165,7.02168 1.649611,7.44389 0.38142,0.37762 0.440525,0.61218 0.211871,0.84083 -0.122925,0.12293 -0.467881,0.14318 -2.398382,0.1408 -1.360855,-0.002 -2.318197,-0.0397 -2.414699,-0.0959 z m 21.329604,-0.011 c -0.195086,-0.19509 -0.117534,-0.40163 0.266755,-0.71046 0.207019,-0.16636 0.455007,-0.4802 0.551098,-0.69743 0.09609,-0.21722 0.461028,-1.78399 0.810982,-3.4817 0.349944,-1.69771 0.670322,-3.16647 0.711949,-3.26391 0.05915,-0.13847 0.09876,-0.0623 0.181317,0.34881 0.09955,0.49573 0.07643,0.66617 -0.402124,2.96386 -0.730158,3.50577 -0.704795,3.3351 -0.550549,3.70426 0.07316,0.17508 0.237627,0.38688 0.365495,0.47066 0.282479,0.18509 0.384728,0.46365 0.235973,0.64289 -0.142934,0.17222 -2.001977,0.19194 -2.170896,0.023 z m 3.928777,0 c -0.165575,-0.16557 -0.133423,-0.33823 0.118777,-0.63796 0.255416,-0.30354 0.278496,-0.61993 0.105401,-1.4452 l -0.105401,-0.50252 -0.822302,-0.0457 -0.822302,-0.0457 0.02948,-0.36418 c 0.01622,-0.2003 0.07789,-0.39497 0.13705,-0.43259 0.05916,-0.0376 0.360141,-0.0691 0.668833,-0.0698 0.364253,-9.1e-4 0.576242,-0.0415 0.603917,-0.1156 0.02345,-0.0628 -0.197014,-1.49157 -0.489918,-3.175 -0.544656,-3.13033 -0.609271,-3.71667 -0.443632,-4.02615 0.08534,-0.15946 0.200349,-0.17673 1.176577,-0.17673 0.758775,0 1.107724,0.0341 1.168108,0.11421 0.04735,0.0628 0.468191,2.27275 0.935204,4.91097 0.824925,4.66018 0.986333,5.39065 1.191169,5.39065 0.0539,0 0.144268,0.10157 0.200833,0.22571 0.07863,0.17259 0.07554,0.2586 -0.01315,0.36547 -0.09652,0.1163 -0.40238,0.13975 -1.822496,0.13975 -1.205468,0 -1.738703,-0.0322 -1.816155,-0.10964 z m -9.705431,-7.61681 c -0.049,-0.1289 -0.0891,-0.29439 -0.0891,-0.36775 0,-0.28433 -0.363485,-1.1469 -0.653438,-1.55065 -0.167293,-0.23296 -0.479302,-0.52619 -0.693347,-0.65163 -0.352621,-0.20665 -0.389186,-0.2616 -0.389186,-0.58486 0,-0.42402 0.110937,-0.44885 0.730935,-0.16363 0.821598,0.37795 0.801379,0.37662 1.118431,0.0736 0.27094,-0.25892 0.299848,-0.26728 0.408867,-0.11819 0.146918,0.20092 0.166526,3.15203 0.02272,3.42072 -0.132482,0.24754 -0.350319,0.22 -0.455884,-0.0576 z m -54.98099,-1.52445 c -0.05177,-0.0628 -0.177452,-0.46587 -0.279302,-0.89568 -0.450875,-1.90269 -1.234461,-3.24072 -2.087867,-3.56518 -0.187874,-0.0714 -0.210726,-0.13981 -0.210726,-0.63058 0,-0.42817 0.03042,-0.55046 0.136925,-0.55046 0.07531,0 0.507783,0.16698 0.961054,0.37108 0.921864,0.41509 1.108965,0.4102 1.336995,-0.0349 0.228512,-0.44608 0.385276,-0.51796 0.619291,-0.28394 0.123806,0.1238 0.143576,0.50207 0.143576,2.74701 0,1.61989 -0.03573,2.6702 -0.09458,2.78016 -0.107201,0.20031 -0.384608,0.23332 -0.525365,0.0625 z"
         id="path950"
         inkscape:connector-curvature="0" />
    </g>
  </g>
</svg>
