<svg id="visual" viewBox="0 0 960 540" width="960" height="540" xmlns="http://www.w3.org/2000/svg" xmlns:xlink="http://www.w3.org/1999/xlink" version="1.1"><rect x="0" y="0" width="960" height="540" fill="#03192e"></rect><defs><linearGradient id="grad1_0" x1="43.8%" y1="0%" x2="100%" y2="100%"><stop offset="14.444444444444446%" stop-color="#03192e" stop-opacity="1"></stop><stop offset="85.55555555555554%" stop-color="#03192e" stop-opacity="1"></stop></linearGradient></defs><defs><linearGradient id="grad2_0" x1="0%" y1="0%" x2="56.3%" y2="100%"><stop offset="14.444444444444446%" stop-color="#03192e" stop-opacity="1"></stop><stop offset="85.55555555555554%" stop-color="#03192e" stop-opacity="1"></stop></linearGradient></defs><g transform="translate(960, 0)"><path d="M0 340C-43.2 331.7 -86.5 323.3 -127.8 308.6C-169.2 293.8 -208.7 272.6 -243.2 243.2C-277.8 213.8 -307.5 176.2 -324.3 134.3C-341.1 92.4 -345 46.2 -349 0L0 0Z" fill="#456dad"></path></g><g transform="translate(0, 540)"><path d="M0 -338C44 -333.4 88 -328.8 130.5 -315C173 -301.3 213.9 -278.3 246.8 -246.8C279.7 -215.3 304.6 -175.3 320.6 -132.8C336.6 -90.2 343.8 -45.1 351 0L0 0Z" fill="#456dad"></path></g></svg>