<svg id="visual" viewBox="0 0 960 540" width="960" height="540" xmlns="http://www.w3.org/2000/svg" xmlns:xlink="http://www.w3.org/1999/xlink" version="1.1"><rect x="0" y="0" width="960" height="540" fill="#2db370"></rect><g transform="translate(512.8194938017073 260.54042520704553)"><path d="M224.9 -267C277.1 -224.2 295.1 -139.7 301.5 -59.7C307.8 20.4 302.4 95.9 272.4 166.1C242.4 236.2 187.7 300.9 120.9 319.9C54.1 338.8 -24.9 312.1 -104.8 284.6C-184.7 257 -265.6 228.5 -314.7 169.2C-363.9 109.9 -381.4 19.8 -361.3 -58.5C-341.3 -136.8 -283.8 -203.2 -217.3 -243.5C-150.8 -283.8 -75.4 -297.9 5.5 -304.4C86.3 -310.9 172.7 -309.8 224.9 -267" fill="#456dad"></path></g></svg>