<svg id="visual" viewBox="0 0 960 540" width="960" height="540" xmlns="http://www.w3.org/2000/svg" xmlns:xlink="http://www.w3.org/1999/xlink" version="1.1"><rect width="960" height="540" fill="#ffffff"></rect><g><g transform="translate(786 129)"><path d="M0 -21.3L18.4 -10.6L18.4 10.6L0 21.3L-18.4 10.6L-18.4 -10.6Z" fill="none" stroke="#2db370" stroke-width="2"></path></g><g transform="translate(411 397)"><path d="M0 -17L14.7 -8.5L14.7 8.5L0 17L-14.7 8.5L-14.7 -8.5Z" fill="none" stroke="#2db370" stroke-width="2"></path></g><g transform="translate(897 436)"><path d="M0 -4L3.5 -2L3.5 2L0 4L-3.5 2L-3.5 -2Z" fill="none" stroke="#2db370" stroke-width="2"></path></g><g transform="translate(557 445)"><path d="M0 -17L14.7 -8.5L14.7 8.5L0 17L-14.7 8.5L-14.7 -8.5Z" stroke="#2db370" fill="none" stroke-width="2"></path></g><g transform="translate(160 148)"><path d="M0 -6L5.2 -3L5.2 3L0 6L-5.2 3L-5.2 -3Z" stroke="#2db370" fill="none" stroke-width="2"></path></g><g transform="translate(626 500)"><path d="M0 -10L8.7 -5L8.7 5L0 10L-8.7 5L-8.7 -5Z" stroke="#2db370" fill="none" stroke-width="2"></path></g><g transform="translate(823 40)"><path d="M0 -13L11.3 -6.5L11.3 6.5L0 13L-11.3 6.5L-11.3 -6.5Z" stroke="#2db370" fill="none" stroke-width="2"></path></g><g transform="translate(884 310)"><path d="M0 -7L6.1 -3.5L6.1 3.5L0 7L-6.1 3.5L-6.1 -3.5Z" stroke="#2db370" fill="none" stroke-width="2"></path></g><g transform="translate(104 232)"><path d="M0 -10L8.7 -5L8.7 5L0 10L-8.7 5L-8.7 -5Z" stroke="#2db370" fill="none" stroke-width="2"></path></g><g transform="translate(469 21)"><path d="M0 -8L6.9 -4L6.9 4L0 8L-6.9 4L-6.9 -4Z" stroke="#2db370" fill="none" stroke-width="2"></path></g><g transform="translate(350 370)"><path d="M0 -7L6.1 -3.5L6.1 3.5L0 7L-6.1 3.5L-6.1 -3.5Z" stroke="#2db370" fill="none" stroke-width="2"></path></g><g transform="translate(708 145)"><path d="M0 -10L8.7 -5L8.7 5L0 10L-8.7 5L-8.7 -5Z" stroke="#2db370" fill="none" stroke-width="2"></path></g><g transform="translate(379 186)"><path d="M0 -8L6.9 -4L6.9 4L0 8L-6.9 4L-6.9 -4Z" stroke="#2db370" fill="none" stroke-width="2"></path></g><g transform="translate(200 225)"><path d="M0 -4L3.5 -2L3.5 2L0 4L-3.5 2L-3.5 -2Z" stroke="#2db370" fill="none" stroke-width="2"></path></g><g transform="translate(763 262)"><path d="M0 -12L10.4 -6L10.4 6L0 12L-10.4 6L-10.4 -6Z" stroke="#2db370" fill="none" stroke-width="2"></path></g><g transform="translate(644 321)"><path d="M0 -3L2.6 -1.5L2.6 1.5L0 3L-2.6 1.5L-2.6 -1.5Z" stroke="#2db370" fill="none" stroke-width="2"></path></g><g transform="translate(503 323)"><path d="M0 -10L8.7 -5L8.7 5L0 10L-8.7 5L-8.7 -5Z" stroke="#2db370" fill="none" stroke-width="2"></path></g><g transform="translate(584 407)"><path d="M0 -16L13.9 -8L13.9 8L0 16L-13.9 8L-13.9 -8Z" stroke="#2db370" fill="none" stroke-width="2"></path></g><g transform="translate(709 300)"><path d="M0 -11L9.5 -5.5L9.5 5.5L0 11L-9.5 5.5L-9.5 -5.5Z" stroke="#2db370" fill="none" stroke-width="2"></path></g></g></svg>